<svg version="1.1" xmlns="http://www.w3.org/2000/svg" xmlns:xlink="http://www.w3.org/1999/xlink" width="143" height="87.38888" viewBox="0,0,143,87.38888"><g transform="translate(-214.5,-135.30556)"><g data-paper-data="{&quot;isPaintingLayer&quot;:true}" fill-rule="nonzero" stroke-linecap="butt" stroke-linejoin="miter" stroke-miterlimit="10" stroke-dasharray="" stroke-dashoffset="0" style="mix-blend-mode: normal"><path d="M214.5,222.69444v-87.38888h143v87.38888z" fill-opacity="0.00784" fill="#000000" stroke="#ffffff" stroke-width="0"/><path d="M267.80402,176.85184c0,-1.1034 1.1034,-1.1034 1.1034,-1.1034l0.22068,0.22068c3.14917,-2.04357 1.09152,-7.35315 -0.42475,-10.13432c-1.54651,-1.55109 -2.6895,-5.61031 -4.63176,-6.50059c-1.44154,-0.66076 -3.36826,0.60289 -4.58332,0.92771c-0.67732,0.18109 -1.41933,-0.02628 -2.09801,0.14965c-1.4534,0.37677 -2.71774,1.37201 -4.19498,1.64052c-0.11357,0.02063 -4.28469,-0.29786 -4.28263,0.31147c0.00169,0.50026 0.64695,0.76841 0.90649,1.19607c1.54543,2.54642 6.23243,8.08974 2.89677,10.69994c-1.02359,0.80098 -2.5932,0.21694 -3.87554,0.42889c-4.19262,1.35394 -8.64943,1.72574 -12.93997,2.54913c-0.28175,0.05407 -4.70467,0.70839 -4.89094,1.07228c-0.63408,1.23874 0.85174,4.37482 1.03466,5.54869c0.44667,2.86649 0.42466,5.84363 0.87838,8.70542c0.07153,0.45115 -0.36478,0.95865 -0.15055,1.36209c0.7649,1.44048 3.52458,-0.35408 4.10419,-0.4938c0.65431,-0.15772 1.34596,-0.01968 2.01894,-0.02952c1.12865,0.02204 2.17993,-0.58866 3.27736,-0.8532c2.30456,-0.55552 4.7638,-0.30824 7.06172,-0.88272c1.17695,-0.29424 2.35147,-0.59842 3.53086,-0.88272c0.71792,-0.17306 1.28446,-0.98902 2.01894,-0.91224c4.28591,0.44809 2.86882,6.06925 2.86882,9.04784c0,0.58848 0.06867,1.18098 0,1.76544c-0.04033,0.34326 -0.56757,0.74082 -0.32318,0.98522c0.24439,0.24439 0.64196,-0.28285 0.98522,-0.32318c0.58446,-0.06867 1.17695,0 1.76544,0c1.76544,0 3.53086,0 5.2963,0c0.29208,0 3.63189,-0.00861 3.78437,0.02952c0.5614,0.14036 0.96157,0.67433 1.51192,0.8532c0.23142,0.07522 0.7543,0.11247 0.71866,-0.12824c-0.07209,-0.48689 -0.77046,-0.69093 -0.90982,-1.163c-0.59861,-2.02771 -0.02952,-5.189 -0.02952,-7.31524c0,-5.2963 0,-10.5926 0,-15.88888l-1.54476,0.22068c0,0 -1.1034,0 -1.1034,-1.1034zM272.65896,175.72231c0,6.55553 0,13.11106 0,19.66657c0,1.5181 -0.34476,3.56227 -0.02952,5.04279c0.17478,0.82083 1.22399,1.61379 0.85561,2.36786c-1.63822,3.35335 -3.05754,1.16835 -4.83115,0.72496c-1.05987,-0.26496 -2.18486,0.02952 -3.27736,0.02952c-2.32969,0 -4.73943,0.17409 -7.06172,0c-0.85297,-0.06394 -1.94082,0.28166 -2.54564,-0.32318c-0.60483,-0.60483 -0.25924,-1.69267 -0.32318,-2.54564c-0.13031,-1.73829 0,-3.55257 0,-5.2963c0,-0.98512 0.55285,-2.04531 0.16479,-2.95078c-0.23046,-0.53773 -3.60034,0.36783 -4.10419,0.4938c-1.8113,0.45282 -3.48241,1.32819 -5.2963,1.76544c-1.14419,0.2758 -2.39187,-0.29651 -3.53086,0c-1.25573,0.32691 -2.48692,0.89326 -3.78437,0.91224c-2.60273,-0.0508 -5.76031,2.52986 -8.00033,-0.5233c-0.42867,-0.58428 -0.00896,-1.45808 -0.15055,-2.16879c-0.71531,-3.59077 -0.83492,-7.19743 -1.54513,-10.77012c-0.1307,-0.65748 -0.43365,-4.4305 -0.07269,-4.98812c1.37566,-2.12517 2.57032,-1.08386 4.29564,-1.39655c4.86109,-0.88094 10.18611,-1.67535 14.89602,-3.21832c1.06622,-0.17556 2.23689,0.24553 3.23767,-0.162c1.04823,-0.42684 -0.27142,-1.87843 -0.37425,-2.03844c-1.20462,-1.87441 -2.42224,-3.73653 -3.32946,-5.78412c-0.39838,-0.89915 -1.34282,-1.80038 -1.07632,-2.74704c0.63437,-2.25327 2.94275,-1.93858 4.47741,-1.9532c2.54,-0.02422 5.23787,-1.08112 7.65372,-1.72644c1.75194,-0.46797 4.02473,-1.78128 6.00927,-0.83771c2.66438,1.2668 3.53313,5.20124 5.55085,7.21287c1.78939,3.20757 2.2795,5.12866 2.19204,8.81271c-0.01881,0.79216 0.21703,1.65635 0,2.40133z" fill="#ffffff" stroke="none" stroke-width="0.5"/><path d="M290.75462,181.26542c0,-0.77774 0.5482,-1.00728 0.87179,-1.07503c-0.08945,-4.14599 -0.79422,-8.87766 -4.46828,-11.43408c-2.13805,-1.48766 -6.90825,-0.51096 -9.42357,-0.51096c0,0 -1.1034,0 -1.1034,-1.1034c0,-1.1034 1.1034,-1.1034 1.1034,-1.1034c3.16061,0 7.89176,-0.91789 10.6524,0.88475c4.69256,3.06412 5.45674,9.31413 5.45716,14.34211l-1.98612,1.1034c0,0 -1.1034,0 -1.1034,-1.1034z" fill="#ffffff" stroke="none" stroke-width="0.5"/><path d="M312.82254,198.03704c0,-1.1034 1.1034,-1.1034 1.1034,-1.1034h0.88272c4.19854,0.12857 5.08904,-4.80057 5.07562,-8.16512c0,-7.78732 -1.1221,-20.10427 -10.62542,-22.3181c-3.04714,-0.70984 -7.18901,0.02952 -10.33909,0.02952c0,0 -1.1034,0 -1.1034,-1.1034c0,-1.1034 1.1034,-1.1034 1.1034,-1.1034c3.31848,0 7.63094,-0.73723 10.8461,0.02952c10.65102,2.54004 12.3252,15.52439 12.3252,24.46586c-0.01703,4.82504 -1.68588,10.2518 -7.2824,10.37192h-0.88272c0,0 -1.1034,0 -1.1034,-1.1034z" fill="#ffffff" stroke="none" stroke-width="0.5"/><path d="M328.71142,213.0432c0,-1.1034 1.1034,-1.1034 1.1034,-1.1034l1.62177,0.0094c2.76859,-0.75696 6.85677,-1.21104 8.0264,-3.92748c1.5616,-3.79928 0.67857,-8.44573 0.09692,-12.4287c-1.26914,-8.69065 -3.60397,-17.13379 -6.37829,-25.45397c0,0 -0.34892,-1.04677 0.69785,-1.39569c1.04677,-0.34892 1.39569,0.69785 1.39569,0.69785c2.81379,8.44414 5.17887,17.01351 6.46834,25.83273c0.65756,4.49727 1.41797,9.33911 -0.26428,13.6448c-0.40961,0.76915 -0.57418,1.73229 -1.22883,2.30746c-1.8767,1.64889 -6.14375,2.28675 -8.52652,2.91101l-1.90909,0.0094c0,0 -1.1034,0 -1.1034,-1.1034z" fill="#ffffff" stroke="none" stroke-width="0.5"/></g></g></svg>