<svg version="1.1" xmlns="http://www.w3.org/2000/svg" xmlns:xlink="http://www.w3.org/1999/xlink" width="37.98087" height="13.46488" viewBox="0,0,37.98087,13.46488"><g transform="translate(-317.44781,-174.14373)"><g data-paper-data="{&quot;isPaintingLayer&quot;:true}" fill="#e04545" fill-rule="nonzero" stroke="none" stroke-width="0.5" stroke-linecap="butt" stroke-linejoin="miter" stroke-miterlimit="10" stroke-dasharray="" stroke-dashoffset="0" style="mix-blend-mode: normal"><path d="M353.6574,180.39843c1.22072,-0.30317 1.52589,0.90951 1.52589,0.90951l0.1323,0.54212c1.2144,7.86715 -7.65532,6.16996 -12.03749,3.66803c-0.48661,-0.42165 -1.01582,-0.8755 -1.53615,-1.36183c-2.0056,1.32828 -4.12454,1.75333 -6.98894,0.08492c-0.44902,-0.26153 -1.13458,-0.78009 -1.78329,-1.29127c-0.20875,0.45238 -0.45534,0.86715 -0.73491,1.22641c-4.88116,6.27262 -10.96176,0.3793 -14.44459,-3.51253c0,0 -0.83595,-0.93426 0.1045,-1.76472c0.94045,-0.83045 1.77641,0.10381 1.77641,0.10381c1.74127,1.9463 4.49823,6.13972 7.74328,5.27496c1.80094,-0.47993 3.17326,-1.58153 3.57983,-3.23891c-1.65926,-2.19999 -4.48224,-6.76343 0.04284,-6.8948c0.81164,-0.02356 1.32733,0.98347 1.77729,1.65494c0.8208,1.22486 1.06678,2.90672 0.87753,4.52929c2.46164,1.9298 4.16843,3.07352 6.3421,1.98644c-1.14139,-1.49702 -1.79349,-3.22608 -0.98686,-5.19215c1.25467,-3.05815 7.43691,-3.5479 8.63649,-0.05951c0.60683,1.76467 -1.6888,3.38904 -2.70037,4.34633c-0.4373,0.41383 -0.86443,0.81593 -1.28737,1.19502c0.37904,0.32255 0.7432,0.6164 1.04238,0.87743c2.42859,1.36892 9.03015,3.78941 8.09502,-1.22086l-0.0914,-0.34677c0,0 -0.30518,-1.21268 0.91554,-1.51585zM341.97702,180.86587c0.47094,-0.43745 3.32093,-3.08497 3.27698,-3.15124c-0.99911,-1.50633 -4.12564,-0.43461 -4.01649,1.37436c0.03783,0.62696 0.32762,1.22282 0.73951,1.77688z"/></g></g></svg>