<svg version="1.1" xmlns="http://www.w3.org/2000/svg" xmlns:xlink="http://www.w3.org/1999/xlink" width="30.56864" height="26.60856" viewBox="0,0,30.56864,26.60856"><g transform="translate(-317.13941,-168.90311)"><g data-paper-data="{&quot;isPaintingLayer&quot;:true}" fill="#e04545" fill-rule="nonzero" stroke="none" stroke-width="0.5" stroke-linecap="butt" stroke-linejoin="miter" stroke-miterlimit="10" stroke-dasharray="" stroke-dashoffset="0" style="mix-blend-mode: normal"><path d="M338.34581,188.25991c-4.15057,1.61071 -8.89901,2.03634 -13.05786,0.7369c-2.61295,-0.81642 -4.51396,-2.31316 -5.53204,-4.20625c0.64155,4.04155 3.65004,7.54205 8.95022,8.212c3.513,0.21131 6.91405,-1.13755 9.1371,-4.01476c0.18579,-0.24046 0.35321,-0.48341 0.50258,-0.72789zM330.48353,171.44433c1.82444,-0.08116 3.69416,0.2325 5.51049,1.01003c1.13221,0.48467 3.34585,1.31165 3.92205,2.72356c0.64385,1.57767 0.26008,3.01985 -0.58799,4.26449c1.23781,1.19487 2.0279,2.66482 2.32192,4.24343c0.491,-0.35829 0.95946,-0.74197 1.40124,-1.15017c2.3048,-2.12961 3.17951,-4.86438 0.65275,-7.1484c-1.38096,-1.2483 -1.67278,-1.23895 -3.44719,-2.16458c-2.98514,-1.23245 -6.4725,-2.08388 -9.77327,-1.77837zM339.29802,185.12604c0.01082,-1.4328 -0.56669,-2.78081 -1.6624,-3.84893c-0.80467,0.68771 -1.68306,1.26896 -2.45895,1.72432c-0.21977,0.12898 -0.44112,0.25171 -0.66386,0.36812c-0.08538,0.04994 -0.17391,0.09523 -0.26566,0.13553c-1.93424,0.96276 -3.96689,1.4528 -5.97475,1.43494c-0.35481,0.23753 -0.71781,0.40833 -1.11189,0.32574c-0.56915,-0.11927 -0.98813,-0.32747 -1.28816,-0.59549c-1.49194,-0.32722 -2.9412,-0.95445 -4.2941,-1.897c0.83173,2.37005 3.66651,3.86507 6.71002,4.2842c3.64105,0.50142 7.633,-0.2103 11.00976,-1.93144zM335.27749,174.74592c0.30413,0.30317 0.55661,0.65882 0.73918,1.07611c0.19519,0.44615 0.33727,1.0433 0.40908,1.71048c0.12778,0.05668 0.26185,0.11894 0.40339,0.18733c0.18702,0.09037 0.36909,0.18507 0.54616,0.28388c0.3728,-0.57995 0.52854,-1.19341 0.26419,-1.79275c-0.30244,-0.68571 -1.36061,-1.15075 -2.36199,-1.46505zM325.36549,181.99176c0.07054,-0.27198 0.16148,-0.53745 0.26183,-0.78615c0.11142,-0.27612 0.24364,-0.54842 0.39443,-0.81485c-0.59344,-0.37081 -1.14285,-0.77972 -1.62998,-1.2065c0,0 -0.93426,-0.83045 -0.10381,-1.76472c0.83045,-0.93426 1.76472,-0.10381 1.76472,-0.10381c0.47994,0.43457 0.98713,0.80683 1.51984,1.11604c0.8828,-0.83521 1.94623,-1.50986 3.06993,-1.91444l0.48585,-0.89072c-0.06547,-0.00999 -0.13209,-0.01961 -0.19987,-0.02893c-3.00766,-0.41354 -10.57437,1.0637 -7.68846,5.34732c0.67919,0.45495 1.39205,0.80128 2.12554,1.04675zM341.62172,186.66627c-0.2612,1.30198 -0.84997,2.60823 -1.79009,3.83687c-2.75732,3.60353 -6.98268,5.20994 -11.35939,4.98845c-12.70604,-1.76634 -15.26746,-17.14014 -4.92822,-24.18732c5.30803,-3.61793 12.16093,-2.65354 17.77002,-0.34701c1.97178,1.03654 2.52078,1.14346 4.09308,2.5999c4.6004,4.26141 1.58518,9.50168 -2.77057,12.46278c-0.32965,0.2241 -0.66824,0.43969 -1.01483,0.64633zM332.52059,179.52472c0.19938,-0.02187 0.43001,-0.05735 0.65238,-0.1138c-0.1903,-0.0005 -0.39746,-0.00018 -0.62968,-0.00317c-0.00809,0.03866 -0.01571,0.07764 -0.0227,0.11697z"/></g></g></svg>