<svg version="1.1" xmlns="http://www.w3.org/2000/svg" xmlns:xlink="http://www.w3.org/1999/xlink" width="29.28966" height="53.57693" viewBox="0,0,29.28966,53.57693"><g transform="translate(-316.74277,-155.51389)"><g data-paper-data="{&quot;isPaintingLayer&quot;:true}" fill-rule="nonzero" stroke="none" stroke-width="0.5" stroke-linecap="butt" stroke-linejoin="miter" stroke-miterlimit="10" stroke-dasharray="" stroke-dashoffset="0" style="mix-blend-mode: normal"><path d="M336.80417,208.93722c-2.5163,0.75913 -3.46225,-1.54243 -3.46225,-1.54243l-1.06466,-2.59108c-0.1475,-0.39302 -0.28983,-0.78739 -0.4278,-1.18288c-2.03127,-0.8732 -3.85573,-2.35734 -5.14578,-4.05394c-1.55819,-2.04924 -2.88411,-4.68636 -3.39482,-7.35712c-1.54068,-1.08658 -2.54385,-3.57915 -3.19686,-5.6663c-0.43986,-0.4023 -0.82239,-0.84376 -1.09272,-1.34209c-0.57907,-1.06747 -0.28447,-2.33425 -0.4267,-3.50139c0,0 -0.01972,-0.30498 0.07467,-0.70043c-0.65813,-3.57706 -0.37337,-7.25499 4.16025,-8.84668c0.45299,-0.15904 1.32461,-0.13622 2.33998,-0.0148c-0.10595,-1.22604 -0.09137,-2.4672 0.05974,-3.71747c0.10243,-0.84746 0.47361,-2.38925 0.99071,-3.90365c0.00143,-0.12685 0.01398,-0.25485 0.03836,-0.38305c0.07343,-0.38616 0.24599,-0.73111 0.49036,-1.01844c0.46744,-1.11624 1.00061,-2.07613 1.54053,-2.53308c0.91707,-0.77612 1.8169,-1.32816 2.69479,-1.68773c0.60603,-1.35858 1.30877,-2.70647 2.72416,-3.17597c3.79951,-1.26035 6.52573,3.6301 7.55422,5.56235c0.68654,1.28982 1.2538,2.72604 1.6318,4.20988c1.37738,2.30446 2.35706,4.72444 2.82842,6.51652c-0.00087,1.66234 0.70383,3.47737 -0.00261,4.98702c-1.39123,2.97306 -4.12709,3.62213 -6.87075,3.03023c0.09811,1.16564 -0.22597,2.33359 -0.84053,3.44277c1.00479,0.33148 1.98852,0.70102 2.4055,1.51141c0.1562,0.30358 0.27717,0.61456 0.37054,0.93132l0.16206,-0.03839l1.10336,3.30965c0.13125,0.36629 0.16963,0.76238 0.09391,1.16053c-0.13507,0.71026 -0.60547,1.28116 -1.24131,1.61042c2.75128,3.34272 3.57597,7.7428 -0.42492,10.82701c-0.89405,0.68921 -1.83662,1.14473 -2.79784,1.40288l0.69653,1.69424c0,0 0.94595,2.30156 -1.57034,3.0607zM336.0265,199.41885c1.00915,-0.19919 1.84029,-0.79991 1.89754,-1.8955c0.13191,-2.52425 -2.12174,-3.38642 -3.88771,-4.52568c0.25575,0.76389 0.4322,1.44269 0.4529,1.50602c0.27582,0.84416 0.56189,1.68592 0.84283,2.52888c0.22704,0.79597 0.45581,1.59219 0.69445,2.38626zM335.05322,163.94309c-0.03295,0.17834 -0.05898,0.34136 -0.07338,0.48342c-0.08452,0.83409 -0.13547,1.75231 -0.11634,2.69518c1.03068,0.88206 2.18861,1.89142 3.02278,2.98151c0.11951,-1.37744 -0.11784,-2.8046 -0.55222,-4.29487c-0.07021,-0.08251 -0.14223,-0.16499 -0.21611,-0.24746c-0.70351,-0.78528 -1.40249,-1.32471 -2.06473,-1.61778zM332.93948,179.08961c0.2384,0.47218 0.49381,0.93622 0.76686,1.39317c0.01092,-0.10932 0.0102,-0.22094 -0.00367,-0.335c-0.05611,-0.46136 -0.34363,-0.79822 -0.76319,-1.05819zM326.41693,177.56839c0.05122,0.23056 0.16308,0.50485 0.31742,0.8089c-0.11087,-0.26828 -0.21674,-0.53794 -0.31742,-0.8089z" fill="#ff3e3e"/><path d="M336.65199,204.05747c-0.14358,0.08643 -0.24541,-0.04667 -0.24541,-0.04667l-0.02444,-0.046c-1.07106,-0.74757 -1.98143,-1.74969 -2.88277,-2.63656c-1.53007,-1.52068 -3.61312,-2.90452 -5.41461,-4.15954c-1.56704,-1.09169 -3.22452,-2.48222 -4.93161,-3.3595c0,0 -0.15529,-0.08039 -0.07241,-0.21721c0.08288,-0.13682 0.23817,-0.05643 0.23817,-0.05643c1.72246,0.8974 3.38847,2.28051 4.97386,3.38499c1.819,1.26722 3.91761,2.66397 5.4625,4.19937c0.88237,0.87371 1.78159,1.86441 2.83487,2.59673l0.10357,0.12131c0,0 0.10184,0.1331 -0.04174,0.21952z" fill="#5d1f1f"/><path d="M342.12489,203.06407c-0.17396,0.01778 -0.20084,-0.13991 -0.20084,-0.13991l-0.02694,-0.18587c-0.24347,-0.30783 -0.49882,-0.5909 -0.77349,-0.87761c-1.60297,-1.67339 -3.31513,-3.22071 -5.13905,-4.69713c-1.76975,-1.4552 -3.64308,-2.773 -5.46386,-4.17481c-1.87057,-1.44017 -3.76094,-2.87611 -5.7071,-4.23193c-1.40901,-0.9816 -3.23455,-2.39142 -4.99983,-2.72266c0,0 -0.17353,-0.033 -0.14401,-0.18822c0.02952,-0.15522 0.20305,-0.12222 0.20305,-0.12222c1.82907,0.3519 3.68539,1.76544 5.14882,2.78495c1.95098,1.35917 3.8461,2.79859 5.72129,4.24232c1.82342,1.4039 3.69957,2.72384 5.47192,4.18121c1.83531,1.48562 3.55804,3.0431 5.17116,4.72676c0.3036,0.3169 0.5787,0.62527 0.83738,0.97229l0.0486,0.25738c0,0 0.02687,0.1577 -0.14709,0.17547z" fill="#5d1f1f"/><path d="M342.24571,192.68732c-0.14725,0.08144 -0.2437,-0.05476 -0.2437,-0.05476l-0.09119,-0.13035c-0.50789,-0.92404 -1.45294,-1.65165 -2.19526,-2.42982c-1.6881,-1.57502 -3.58884,-2.84107 -5.46585,-4.2179c-1.92328,-1.4115 -4.07916,-2.66053 -6.17268,-3.84905c-1.91372,-1.08644 -3.87777,-2.20079 -5.71392,-3.38375c-1.70953,-1.10565 -3.56879,-1.77043 -5.49952,-2.44353c0,0 -0.16632,-0.05807 -0.10868,-0.20575c0.05764,-0.14769 0.22396,-0.08962 0.22396,-0.08962c1.95944,0.6852 3.84598,1.36107 5.58159,2.48359c1.82309,1.18419 3.78975,2.29066 5.69528,3.37245c2.10661,1.19594 4.27327,2.45333 6.20932,3.87275c1.89157,1.38751 3.80614,2.66391 5.50625,4.25233c0.76993,0.80732 1.71236,1.55252 2.25258,2.50482l0.07261,0.10094c0,0 0.09645,0.1362 -0.0508,0.21764z" fill="#5d1f1f"/><path d="M340.88431,187.02129c-0.104,0.12408 -0.24602,0.02515 -0.24602,0.02515l-0.2895,-0.20195c-1.01634,-0.86688 -2.23918,-1.56011 -3.38258,-2.27862c-2.05008,-1.18131 -4.08369,-2.38828 -6.19006,-3.48354c-2.14353,-1.11458 -4.2175,-2.33601 -6.34519,-3.47453c-1.6988,-0.90902 -3.40879,-1.8016 -5.11823,-2.68554c0,0 -0.15529,-0.08039 -0.07241,-0.21721c0.08288,-0.13682 0.23817,-0.05643 0.23817,-0.05643c1.70998,0.88629 3.42255,1.77815 5.12285,2.68796c2.12636,1.13781 4.19901,2.35854 6.34119,3.47242c2.11338,1.0989 4.1542,2.3094 6.21077,3.49514c1.15558,0.72585 2.39096,1.42682 3.41799,2.30281l0.27503,0.19133c0,0 0.14201,0.09894 0.038,0.22301z" fill="#5d1f1f"/><path d="M342.17433,182.16165c-0.14358,0.08643 -0.24541,-0.04667 -0.24541,-0.04667l-0.09562,-0.13491c-0.38982,-0.16092 -0.70209,-0.40983 -1.04266,-0.64637c-1.96501,-1.30522 -4.09387,-2.41348 -6.20592,-3.50688c-2.12073,-1.06199 -4.26102,-2.07746 -6.40436,-3.09911c-1.82331,-0.86918 -3.63925,-1.80247 -5.34441,-2.8573c0,0 -0.14788,-0.09148 -0.05239,-0.22115c0.09549,-0.12967 0.24337,-0.03819 0.24337,-0.03819c1.69337,1.04754 3.49712,1.97433 5.30787,2.83738c2.14636,1.0231 4.28972,2.03999 6.41339,3.10356c2.12627,1.1007 4.26871,2.21695 6.24684,3.53106c0.34984,0.24295 0.66674,0.48265 1.06063,0.65938l0.1604,0.1997c0,0 0.10184,0.1331 -0.04174,0.21952z" fill="#5d1f1f"/><path d="M342.17803,176.11555c-0.02952,0.15522 -0.20305,0.12222 -0.20305,0.12222l-0.25879,-0.05129c-1.09663,-0.55763 -2.2474,-1.04035 -3.36215,-1.56827c-2.14863,-1.01817 -4.48681,-1.77577 -6.77384,-2.46515c-1.88952,-0.56958 -3.75991,-1.25186 -5.70179,-1.62114c0,0 -0.17353,-0.033 -0.14401,-0.18822c0.02952,-0.15522 0.20305,-0.12222 0.20305,-0.12222c1.95581,0.37192 3.83897,1.05738 5.74194,1.63097c2.30616,0.69515 4.66118,1.46044 6.82821,2.48607c1.09916,0.52053 2.25155,0.98589 3.32246,1.55209l0.20396,0.03671c0,0 0.17353,0.033 0.14401,0.18822z" fill="#5d1f1f"/><path d="M345.1957,172.15675c-0.14358,0.08643 -0.24541,-0.04667 -0.24541,-0.04667l-0.12325,-0.16136c-1.16308,-1.26608 -2.91301,-2.3216 -4.47997,-3.13867c-2.09363,-1.09315 -4.13753,-2.2267 -6.31983,-3.16863c-1.77588,-0.76654 -3.6678,-1.7081 -5.65112,-1.78498c0,0 -0.17602,-0.00703 -0.17544,-0.16557c0.00059,-0.15854 0.17661,-0.1515 0.17661,-0.1515c2.03769,0.08366 3.96495,1.02856 5.79124,1.81681c2.19104,0.94571 4.2435,2.08333 6.3455,3.18085c1.61135,0.84241 3.39632,1.9233 4.59065,3.22696l0.13277,0.17325c0,0 0.10184,0.1331 -0.04174,0.21952z" fill="#5d1f1f"/><path d="M344.30915,168.41402c-0.14358,0.08643 -0.24541,-0.04667 -0.24541,-0.04667l-0.01228,-0.03821c-1.22946,-0.72288 -2.47265,-1.42502 -3.71161,-2.13404c-2.07338,-1.18671 -4.20317,-2.36978 -6.40246,-3.34585c-1.83047,-0.81239 -3.69517,-1.85338 -5.69397,-2.23259c0,0 -0.17353,-0.033 -0.14401,-0.18822c0.02952,-0.15522 0.20305,-0.12222 0.20305,-0.12222c2.03085,0.38706 3.91949,1.43373 5.77985,2.25938c2.21138,0.98145 4.35244,2.17055 6.4374,3.36353c1.24025,0.70976 2.48472,1.41265 3.71546,2.13628l0.11573,0.12909c0,0 0.10184,0.1331 -0.04174,0.21952z" fill="#5d1f1f"/><path d="M344.97525,165.4996c-0.10695,0.12199 -0.24676,0.0205 -0.24676,0.0205c-0.09321,-0.06766 -0.4021,-0.2919 -0.49531,-0.35956c-1.91347,-1.38906 -3.84472,-2.71853 -5.84196,-4.0027c-1.64674,-1.05881 -3.39088,-2.12369 -5.1816,-2.96265c0,0 -0.15875,-0.07437 -0.08269,-0.21456c0.07606,-0.14019 0.2348,-0.06581 0.2348,-0.06581c1.80595,0.84609 3.56523,1.91934 5.22601,2.98717c2.00313,1.28796 3.94024,2.62143 5.85933,4.01457c0.09321,0.06766 0.18642,0.13533 0.27963,0.20299l0.21568,0.15657c0,0 0.13981,0.1015 0.03287,0.22349z" fill="#5d1f1f"/></g></g></svg>