<svg version="1.1" xmlns="http://www.w3.org/2000/svg" xmlns:xlink="http://www.w3.org/1999/xlink" width="36.09119" height="9.19998" viewBox="0,0,36.09119,9.19998"><g transform="translate(-318.48347,-176.27332)"><g data-paper-data="{&quot;isPaintingLayer&quot;:true}" fill="#e04545" fill-rule="nonzero" stroke="none" stroke-width="0.5" stroke-linecap="butt" stroke-linejoin="miter" stroke-miterlimit="10" stroke-dasharray="" stroke-dashoffset="0" style="mix-blend-mode: normal"><path d="M318.56415,178.68805c0.39528,-1.18585 1.58114,-0.79057 1.58114,-0.79057l0.86401,0.30749c1.3108,0.71074 1.7462,0.82966 2.8185,1.85594c0.40743,0.38994 1.19564,1.89284 1.00222,1.36309c-0.39726,-1.08805 0.64034,-3.94544 1.5705,-4.31859c0.72315,-0.2901 1.43898,0.60717 2.11691,0.99124c1.55129,0.87886 2.72531,2.83667 4.68652,2.1456c0.96797,-1.02476 1.92623,-3.21088 3.25973,-3.74523c3.22167,-1.29096 6.44162,3.34021 8.18985,5.34266c0.27561,0.31569 0.10395,-0.83703 0.23509,-1.23506c0.21917,-0.66521 0.22033,-1.50865 0.75528,-1.96072c0.67019,-0.56635 1.63349,-0.861 2.50864,-0.79749c2.2857,0.16589 4.9545,3.95316 6.16394,5.61282c0,0 0.73521,1.01092 -0.27571,1.74613c-1.01092,0.73521 -1.74613,-0.27571 -1.74613,-0.27571c-1.14202,-1.57369 -2.70718,-3.72476 -4.50272,-4.6094c-0.34139,-0.1682 -0.40984,0.65348 -0.51386,1.01957c-0.38291,1.34764 -0.77438,3.1846 -2.87602,2.98716c-2.39992,-0.22545 -4.25152,-4.47472 -6.36117,-5.49593c-0.84933,-0.41114 -2.90692,2.94173 -3.52259,3.53781c-2.16231,0.70509 -3.29512,0.696 -5.23589,-0.57646c-0.60903,-0.39931 -1.31529,-0.72586 -1.85168,-1.21023c-0.23834,1.22298 -1.35226,3.01601 -1.42739,3.04938c-2.14577,0.95303 -4.48025,-2.31786 -6.17928,-3.22542l-0.46933,-0.13696c0,0 -1.18585,-0.39528 -0.79057,-1.58114z"/></g></g></svg>