<svg version="1.1" xmlns="http://www.w3.org/2000/svg" xmlns:xlink="http://www.w3.org/1999/xlink" width="79.14802" height="54.71919" viewBox="0,0,79.14802,54.71919"><g transform="translate(-308.47513,-157.80596)"><g data-paper-data="{&quot;isPaintingLayer&quot;:true}" fill="#e04545" fill-rule="nonzero" stroke="none" stroke-width="0.5" stroke-linecap="butt" stroke-linejoin="miter" stroke-miterlimit="10" stroke-dasharray="" stroke-dashoffset="0" style="mix-blend-mode: normal"><path d="M327.84424,177.57664l-0.15463,0.0463c1.63039,0.84699 3.3038,1.52459 4.99195,2.13547l0.00001,0.00001c0.55318,-0.15182 1.0976,-0.3034 1.62557,-0.43787c-0.63359,-0.2742 -1.26577,-0.61743 -1.97392,-0.87556c-1.28619,-0.46883 -2.57699,-0.95077 -3.87093,-1.41723c-0.23072,0.42949 -0.61804,0.54887 -0.61804,0.54887zM342.76567,190.95241c0.4675,0.14956 0.93501,0.29738 1.40284,0.43886c-2.59362,-1.04379 -5.21948,-2.0007 -7.85958,-2.88148c2.13286,0.86838 4.28325,1.68037 6.45674,2.44263zM352.17206,192.35309c0.90704,-0.14432 1.80834,-0.48346 2.69413,-0.9396c-2.04494,-0.29095 -4.08864,-0.61694 -6.12758,-0.98076c0.1567,0.06966 0.3133,0.13985 0.46977,0.2106c0.86806,0.54109 2.29444,0.36913 2.60418,1.62328c0.0111,0.04496 0.02009,0.08974 0.02708,0.13434c0.1107,-0.01427 0.2215,-0.03021 0.33242,-0.04786zM360.05031,187.79127c0.92987,-0.72432 1.84486,-1.4795 2.74325,-2.26689c-6.85072,-3.12822 -13.93099,-5.27928 -20.92026,-7.73018c-3.41473,-1.19743 -6.82388,-2.24941 -10.30242,-2.80802c1.64603,0.77547 3.2171,1.71813 4.60962,2.86177l0.16506,-0.40932l1.71048,1.34272c0.39263,0.29219 0.60784,0.9292 0.49448,1.55851c-0.10169,0.56455 -0.43849,0.96012 -0.82799,1.03445l-0.18678,0.04169c0.31503,0.10753 0.62963,0.21614 0.94363,0.32651c4.46943,1.26847 8.97281,2.17678 13.4612,3.2976l1.94003,0.42453c0.03342,0.00678 0.06691,0.01598 0.10037,0.02772c0.53139,0.18634 0.8539,0.93843 0.72034,1.67984c-0.10539,0.58509 -0.46331,0.98868 -0.87071,1.04128l-0.84679,0.13723c1.79419,0.27678 3.59028,0.52558 5.38584,0.74832c0.57528,-0.43928 1.13659,-0.88398 1.68064,-1.30777zM372.26365,175.02097c-7.10775,-3.18836 -14.75384,-4.82837 -22.10482,-5.04911c-6.26908,-0.18825 -12.43719,0.41788 -18.68679,0.94907c-3.42714,0.29129 -6.79531,0.55842 -10.13332,1.10409c0.47052,0.07134 0.95443,0.15208 1.44862,0.24325c1.29166,-0.60222 3.02478,-0.51583 3.84731,-0.53649c1.4289,-0.03586 2.85793,0.06262 4.28316,0.26067c0.84339,-0.31725 1.69209,-0.58448 2.55012,-0.75448l1.03659,-0.19538c0.12837,-0.02844 0.2629,-0.02191 0.39693,0.02509c0.53139,0.18634 0.8539,0.93843 0.72034,1.67984c-0.01286,0.07141 -0.02948,0.1401 -0.0495,0.20579c2.28837,0.60633 4.55548,1.3743 6.78463,2.15599c7.56715,2.65354 15.10574,5.1843 22.52453,8.49699c2.6413,-2.54326 5.11783,-5.39242 7.3822,-8.58534zM311.6199,174.70209c-0.07301,0.00681 -0.14635,0.01932 -0.21982,0.03424c0.84602,0.53973 1.60239,1.36065 2.45434,1.89262c0.82142,0.51291 1.63365,1.03319 2.44422,1.55191c-0.08377,-0.2791 -0.12226,-0.58165 -0.09891,-0.90963c0.00077,-0.0108 0.00162,-0.02155 0.00255,-0.03228c-0.62508,-0.59059 -1.41826,-1.33397 -1.40084,-2.35187c0.0103,-0.602 0.17089,-1.08758 0.43643,-1.47797c-1.20719,0.36449 -2.41272,0.79059 -3.61797,1.29298zM309.88688,176.8117c-0.5373,-0.62154 -1.58358,-1.25315 -1.38762,-2.18778c0.27713,-1.32177 1.57791,-1.65512 2.36687,-2.48267c3.15532,-1.33782 6.31002,-2.16568 9.4906,-2.72878c1.37263,-3.92671 4.43268,-6.40574 7.29748,-8.03225c7.22739,-4.1034 14.42585,-3.81842 22.11787,-3.24887c7.94307,0.59156 15.98173,2.59378 23.79367,4.6252c1.40132,0.3644 6.69453,1.26071 6.41213,4.37754c-0.11067,1.22144 -0.99234,2.0392 -1.54337,3.00079c-0.75795,1.32267 -1.63163,2.53736 -2.51463,3.72885c0.78804,0.41166 1.56793,0.84294 2.33852,1.29402c4.09353,2.39624 7.3234,3.93706 9.36476,9.83718c-0.26663,6.08729 -3.03698,10.56022 -6.58061,13.89284c-2.00744,1.88791 -4.18888,3.51465 -6.48042,4.85983l0.3254,0.15901c0.48532,0.22861 0.77078,0.94336 0.64377,1.64845c-0.09866,0.54771 -0.4186,0.93636 -0.79328,1.02694l-1.92541,0.52607l-0.00334,-0.02378c-0.04957,0.01752 -0.09943,0.03376 -0.14963,0.04858c-1.32072,0.38996 -2.97551,0.10515 -4.64695,-0.40504c-4.43172,1.47171 -9.0328,1.95271 -13.42029,1.32082c-2.4562,-0.35885 -4.90471,-0.85781 -7.32409,-1.53159c0.07285,0.42915 0.16382,0.86159 0.27521,1.29946c0.23694,0.93137 1.27036,3.77752 1.01709,4.14765c-0.7068,1.03294 -2.03622,0.29408 -3.05433,0.44112l-1.11123,-0.63109c0,0 -0.91458,-0.53635 -0.53016,-1.81241l0.00002,-0.00001c0.38442,-1.27606 1.299,-0.73971 1.299,-0.73971l0.75661,0.4632c-0.24878,-0.8395 -0.57385,-2.39034 -0.61259,-2.63381c-0.06289,-0.39513 -0.11431,-0.78512 -0.15512,-1.17156c-5.5997,-1.81732 -11.00673,-4.64125 -15.94894,-8.91252c-3.34556,-2.89138 -6.82788,-6.50645 -8.03189,-11.79105c-1.06242,-0.48589 -2.12904,-0.95186 -3.2009,-1.39234c-0.25404,-0.03129 -0.5073,-0.06101 -0.75943,-0.0894c-0.72259,-0.08135 -1.52071,0.26598 -2.17092,-0.18128c-0.06542,-0.045 -0.12902,-0.09367 -0.19102,-0.14559l-0.0123,0.03208l-1.42443,-1.06316c-0.40403,-0.28591 -0.62759,-0.93271 -0.5125,-1.57159c0.09506,-0.52773 0.39556,-0.9078 0.75251,-1.01585c-1.35456,-0.83235 -2.72496,-1.73315 -3.76609,-2.93752zM373.81702,172.82044c1.3798,-1.93211 2.75085,-3.86705 4.17685,-5.72239c0.45486,-0.59181 -1.22782,-0.29972 -1.82471,-0.5435c-0.61693,-0.25196 -1.2219,-0.56169 -1.84402,-0.78743c-2.02065,-0.73321 -4.17401,-1.03524 -6.23486,-1.48621c-6.10468,-1.33587 -12.24321,-2.93026 -18.42335,-3.38507c-7.40176,-0.54805 -14.31299,-0.87949 -21.26636,3.04944c-1.89762,1.07223 -4.25488,2.70264 -5.58735,5.08152c2.81468,-0.39042 5.65472,-0.62429 8.53823,-0.86915c6.30402,-0.53532 12.52639,-1.14344 18.85008,-0.95355c7.86894,0.2363 16.05982,2.06092 23.6155,5.61634zM330.24818,194.61349c4.59368,3.96463 9.59836,6.62852 14.78451,8.38205c0.01921,-0.99985 0.09729,-2.00291 0.21845,-3.03842c0.09765,-0.83456 0.23636,-1.58804 0.43868,-2.27682c-2.39371,-1.15913 -4.78843,-2.36731 -7.20733,-3.60756c-4.96113,-2.54391 -9.89122,-5.32737 -14.89851,-7.75815c1.3967,3.57868 4.32811,6.2827 6.6642,8.29889zM354.79902,205.29532c2.86121,0.42446 5.82055,0.33706 8.75861,-0.21561c-0.32543,-0.12319 -0.63637,-0.23635 -0.92905,-0.33415c-5.16378,-1.72546 -10.10493,-3.82422 -15.02427,-6.14907c-0.17569,0.44364 -0.3092,1.00712 -0.39058,1.76756c-0.11967,1.11828 -0.1945,2.19337 -0.1883,3.25882c2.56363,0.74902 5.16384,1.29116 7.77358,1.67244zM379.93573,196.5901c2.69773,-2.52203 5.51324,-6.33461 5.74181,-11.05201c-1.71945,-4.70267 -4.89255,-5.89917 -8.18679,-7.82753c-1.03289,-0.60463 -2.08309,-1.17263 -3.14766,-1.70446c-2.1836,3.20466 -4.57134,6.08523 -7.11883,8.6753c0.15544,0.07333 0.31083,0.14706 0.46615,0.22118c1.68007,0.8017 5.89055,2.06344 6.8743,4.32646c1.50142,3.45391 0.79421,3.63351 -1.4073,3.93709c-0.66865,0.0922 -1.34255,-0.08178 -2.01382,-0.12266c-4.09884,-0.25108 -8.23093,-0.61533 -12.36712,-1.1157c-2.00778,1.47985 -4.14964,2.80835 -6.34504,3.16997c-0.19294,0.03178 -0.38556,0.05878 -0.57788,0.08126c4.91392,1.82951 9.84582,3.55456 14.78285,5.2858c1.66742,0.58471 3.3058,1.2265 4.94488,1.91413c2.98348,-1.46785 5.81666,-3.41632 8.35445,-5.78883zM351.59879,188.1314c0.08474,0.01376 0.16948,0.02747 0.25423,0.04111l-0.00884,-0.10624c-0.0817,0.02254 -0.1635,0.04424 -0.24539,0.06512zM371.23064,190.27773c0.22027,0.01357 0.51323,-0.00616 0.81574,-0.01743c-0.49547,-0.30892 -1.00295,-0.58043 -1.50247,-0.87681c-1.74833,-1.03738 -3.53745,-1.90335 -5.33648,-2.74186c-1.07717,1.00089 -2.17926,1.95442 -3.3032,2.8629c3.11954,0.32932 6.23263,0.58367 9.32641,0.77319zM335.77822,184.73832c1.33396,-0.01801 2.6708,0.06079 4.00755,0.18262c-0.58268,-0.15445 -1.16489,-0.3137 -1.74654,-0.479c-1.83856,-0.64506 -3.73338,-1.21541 -5.61834,-1.86014c-0.72365,0.18208 -1.45462,0.35792 -2.18379,0.49783c0.51495,0.18063 1.03312,0.35212 1.55715,0.51156c1.32163,0.40266 2.64997,0.78476 3.98396,1.14713zM324.42694,180.78778c0.36191,-0.7065 1.03408,-0.47079 1.03408,-0.47079c0.68772,0.2569 1.42771,0.36005 2.19726,0.35922c-0.95988,-0.46426 -1.90132,-0.9846 -2.81462,-1.58291c-0.54674,0.41303 -0.96035,0.78486 -1.27333,1.33133c0.2853,0.12209 0.57084,0.24311 0.85659,0.36314zM320.09871,178.60654c0.51374,0.34351 1.03969,0.65333 1.57341,0.93456c0.20512,-0.50441 0.44642,-0.93123 0.73212,-1.31781c-0.76449,0.20386 -1.54403,0.34961 -2.30553,0.38325zM363.59865,202.24675c-2.07797,-0.74038 -4.15218,-1.49313 -6.22391,-2.25563c1.43294,0.56413 2.88001,1.10045 4.34672,1.60468c0.62586,0.21516 1.25117,0.4353 1.87719,0.65095zM318.74139,174.67313c-0.33992,0.0599 -0.79024,0.14219 -1.17322,0.20675c0.096,0.06082 0.19556,0.13314 0.29671,0.20924c0.30563,-0.17413 0.6114,-0.31146 0.87652,-0.41599z"/></g></g></svg>