<svg version="1.1" xmlns="http://www.w3.org/2000/svg" xmlns:xlink="http://www.w3.org/1999/xlink" width="81.98971" height="32.94709" viewBox="0,0,81.98971,32.94709"><g transform="translate(-316.125,-168.00001)"><g data-paper-data="{&quot;isPaintingLayer&quot;:true}" fill="#e04545" fill-rule="nonzero" stroke="none" stroke-width="0.5" stroke-linecap="butt" stroke-linejoin="miter" stroke-miterlimit="10" stroke-dasharray="" stroke-dashoffset="0" style="mix-blend-mode: normal"><path d="M360.38935,199.31114c0.18886,-1.23565 1.42451,-1.04679 1.42451,-1.04679l1.02651,0.17331c-0.48879,-0.65884 -1.22738,-1.91725 -1.32832,-2.11859c-1.00994,-2.01436 -1.44446,-3.99161 -1.63096,-6.19589c-0.06438,-0.76091 -0.06073,-1.46342 0.03488,-2.12879c-3.18019,-0.28003 -6.37241,-0.60271 -9.60123,-0.94605c-9.08024,-0.96576 -18.18828,-2.34387 -27.32909,-2.71158c-0.31732,0.05062 -0.63334,0.10237 -0.94768,0.15494c-0.90089,0.15067 -1.79972,0.69999 -2.6927,0.50796c-0.08985,-0.01932 -0.17828,-0.04241 -0.26547,-0.06884l-0.00797,0.03187l-1.97463,-0.49366c-0.55665,-0.12632 -0.9722,-0.62414 -0.9722,-1.21902c0,-0.61444 0.44333,-1.12533 1.02756,-1.23027l1.22729,-0.24546l0.01014,0.05071l0.11183,-0.0689c1.00101,-0.00209 2.00163,0.01077 3.00187,0.03671c0.53392,-0.14777 1.10216,-0.26547 1.69021,-0.35941c-1.16469,-0.25949 -3.56399,-0.62205 -3.80635,-2.2566c-0.00144,-0.00969 -0.00277,-0.01937 -0.00399,-0.02905c-0.89383,-0.32527 -2.0267,-0.73274 -2.22947,-1.62958c-0.69626,-3.07947 5.66165,-4.2779 7.31985,-4.50899c0.60269,-0.08399 1.2247,-0.16372 1.86222,-0.23721c1.44581,-0.92412 3.58265,-1.38074 4.58321,-1.65144c1.73818,-0.47025 3.50609,-0.82288 5.29127,-1.08714c0.96076,-0.53687 1.93903,-1.03157 2.9501,-1.44397l1.22368,-0.48947c0.15061,-0.06433 0.31643,-0.09993 0.49056,-0.09993c0.69036,0 1.25,0.55964 1.25,1.25c0,0.06649 -0.00519,0.13176 -0.01519,0.19544c2.92978,-0.17177 5.86917,-0.19544 8.76519,-0.19544c11.07429,0 22.07002,-0.12533 33.11244,0.7967c2.22946,0.18616 7.65228,-0.00191 9.35252,1.67795c2.59496,2.56387 1.7703,2.93836 -0.85305,3.88036c-0.79678,0.28611 -1.65856,0.3407 -2.48783,0.51105c-9.1634,1.87998 -18.54141,3.46887 -27.95288,4.59446c0.20682,0.01288 0.41362,0.02626 0.6204,0.04017c1.17985,0.2073 2.88499,-0.38138 3.53954,0.6219c0.48073,0.73686 -0.13878,1.68017 -0.69266,2.51645c6.86884,0.11539 13.7358,0.11096 20.61152,0.11096c2.79434,0 5.55054,0.09803 8.34127,0.25334l0.02139,0.0074l0.00051,-0.00561l2.47704,0.22519c0.64337,0.05117 1.14952,0.58949 1.14952,1.24602c0,0.50999 -0.30541,0.94864 -0.74331,1.14304l-2.237,1.05207l-0.00931,-0.0198c-0.05671,0.03057 -0.11407,0.0601 -0.17215,0.0885c-3.29888,1.61302 -9.1927,0.94978 -12.78311,0.98987c-6.68979,0.07471 -13.1897,-0.2459 -19.71273,-0.77121c-0.11703,0.4425 -0.15615,0.97701 -0.0882,1.66801c0.23024,2.34137 0.70088,4.40887 2.04339,6.42569c0.49455,0.74294 2.38384,2.91825 2.15583,3.3202c-0.63632,1.12173 -2.42347,0.88292 -3.6352,1.32438l-1.4968,-0.21144c0,0 -1.23565,-0.18886 -1.04679,-1.42451zM362.20385,183.82366c0.26949,-0.27192 0.55242,-0.53023 0.84956,-0.76999c-0.15697,0.06455 -0.31391,0.12917 -0.47001,0.19564c-6.48337,-0.42876 -13.08417,-0.50679 -19.66245,-0.34064c-0.39911,0.13329 -0.79486,0.27518 -1.1868,0.42673c1.28527,-0.02557 2.58425,0.14502 3.89667,0.15923c3.76769,0.0408 7.51757,0.04854 11.28428,0.17843c1.76327,0.0608 3.52612,0.11031 5.28874,0.15061zM365.03466,177.81658c0.10658,-0.01397 0.21315,-0.02799 0.31971,-0.04207l-0.03419,-0.09033c-0.09488,0.04483 -0.19005,0.08896 -0.28552,0.1324zM389.49664,173.66707c0.27215,-0.05576 0.62579,-0.16302 0.99297,-0.26579c-0.67345,-0.11839 -1.35334,-0.20032 -2.02897,-0.30649c-3.20119,-0.50305 -6.42459,-0.70803 -9.65516,-0.95124c-9.27831,-0.69851 -18.62811,-0.39356 -27.93048,-0.39356c-4.43627,0 -8.83371,0.12567 -13.20735,0.70476c2.18209,0.17364 4.30939,0.51673 6.26274,1.09068l0.1116,-0.40918l2.38571,0.65065c0.5441,0.13532 0.9473,0.62713 0.9473,1.2131c0,0.52567 -0.32448,0.97555 -0.78408,1.16028l-0.21906,0.09388c0.40863,-0.00258 0.81697,-0.00407 1.22496,-0.00384c5.74072,-0.2617 11.44366,-0.84926 17.17505,-1.2461l2.46411,-0.22401c0.04233,-0.00433 0.08528,-0.00655 0.12875,-0.00655c0.69036,0 1.25,0.55964 1.25,1.25c0,0.5448 -0.34852,1.00819 -0.83477,1.17938l-1.00455,0.38025c7.65125,-1.04791 15.2584,-2.38514 22.72123,-3.91622zM340.07533,176.29324c0.64255,-0.30286 1.27445,-0.60281 1.89001,-0.88273c-0.83459,-0.04556 -1.68264,-0.15201 -2.6048,-0.1606c-2.28365,-0.02127 -4.58315,-0.06123 -6.87797,-0.05762c-0.30588,0.18378 -0.61242,0.36382 -0.92012,0.53837c0.38811,0.03942 0.69526,0.06911 0.85442,0.09091c2.53564,0.34732 5.09478,0.45235 7.65845,0.47166zM344.95552,179.70366c1.6261,-0.42546 3.27702,-0.76701 4.93731,-1.07085c-0.74601,0.04368 -1.49251,0.08302 -2.23965,0.11688c-2.38866,-0.0003 -4.82961,0.08212 -7.2749,0.09636c-0.8442,0.38171 -1.69872,0.76021 -2.55894,1.10669c0.66902,0.00005 1.33995,-0.0089 2.0154,-0.0302c1.70363,-0.05324 3.41093,-0.12655 5.12078,-0.21887zM330.21501,179.72991c0.28673,-0.72991 1.15999,-0.72991 1.15999,-0.72991c0.89692,0.01379 1.82387,-0.12314 2.76406,-0.36021c-1.56475,-0.1372 -3.11417,-0.3569 -4.63525,-0.7c-0.30314,-0.06838 -0.77936,-0.17397 -1.31325,-0.32941c-1.19258,0.61001 -2.4661,1.17373 -3.74465,1.53845c1.31469,0.26742 2.65561,0.41863 3.99457,0.49177c0.59137,0.0323 1.18289,0.06195 1.77452,0.08931zM382.80518,186.49361c-2.70219,-0.01025 -5.4025,-0.03249 -8.10194,-0.06403c1.87519,0.05399 3.76152,0.07928 5.66478,0.07044c0.81214,-0.00377 1.62471,-0.00302 2.43716,-0.00641zM321.9215,176.12075c-0.40219,0.15686 -0.93435,0.36723 -1.38813,0.54139c0.1307,0.02378 0.26828,0.05654 0.40863,0.09213c0.33514,-0.24637 0.67855,-0.46055 0.97951,-0.63352z"/></g></g></svg>