<svg version="1.1" xmlns="http://www.w3.org/2000/svg" xmlns:xlink="http://www.w3.org/1999/xlink" width="37.74242" height="33.97116" viewBox="0,0,37.74242,33.97116"><g transform="translate(-318.91666,-168.55557)"><g data-paper-data="{&quot;isPaintingLayer&quot;:true}" fill="#e04545" fill-rule="nonzero" stroke="none" stroke-width="0.5" stroke-linecap="butt" stroke-linejoin="miter" stroke-miterlimit="10" stroke-dasharray="" stroke-dashoffset="0" style="mix-blend-mode: normal"><path d="M337.29294,202.13389c-0.88388,0.88388 -1.76776,0 -1.76776,0l-0.66667,-0.66667c-4.94441,-4.94562 -8.62425,-10.3943 -12.65708,-15.90395c-0.83403,-0.29404 -1.66075,-0.60335 -2.47879,-0.93045c0,0 -1.1606,-0.46423 -0.69636,-1.62483c0.33854,-0.84638 1.04744,-0.82863 1.40647,-0.75698c0.0579,-0.14768 0.1555,-0.29691 0.3086,-0.43977c-0.24283,-0.17085 -0.44953,-0.46106 -0.47006,-0.95364c-0.03527,-0.84639 0.52697,-1.14308 0.89305,-1.24641c-0.0661,-0.45776 0.09042,-0.76969 0.29542,-0.97782c-0.21843,-0.14326 -0.41054,-0.38619 -0.49608,-0.79252c-0.1386,-0.65834 0.15174,-1.03695 0.44943,-1.24623c-0.23709,-0.166 -0.43913,-0.44713 -0.47306,-0.92222c-0.08906,-1.24682 1.15776,-1.33588 1.15776,-1.33588c0.15244,-0.01073 0.30484,-0.02222 0.45722,-0.03444c-0.10088,-0.12818 -0.18562,-0.29402 -0.24262,-0.50777c-0.32207,-1.20779 0.88572,-1.52987 0.88572,-1.52987c7.57749,-2.02048 14.7614,-3.70887 22.65541,-3.70887h0.22222c0,0 1.25,0 1.25,1.25c0,1.25 -1.25,1.25 -1.25,1.25h-0.22222c-6.33316,0 -12.18514,1.12996 -18.17737,2.62905c2.71989,-0.40247 5.43849,-0.8669 8.16797,-1.12323c6.13991,-0.57661 12.24811,-0.36267 18.39142,-0.67093l1.17353,-0.00156c0,0 1.25,0 1.25,1.25c0,1.25 -1.25,1.25 -1.25,1.25l-1.04869,-0.00156c-4.83341,0.24084 -9.64495,0.15652 -14.46722,0.39522c3.14786,0.10226 6.20907,0.42748 9.00004,1.02298l0.61025,0.10037c0,0 1.23299,0.2055 1.02749,1.43849c-0.01717,0.10299 -0.0415,0.19594 -0.07169,0.27982c0.23289,0.23084 0.4093,0.59245 0.27562,1.14297c-0.14161,0.58317 -0.49521,0.81838 -0.82461,0.90532c0.24249,0.03989 0.48421,0.08185 0.72513,0.12593l1.28135,0.53152c0,0 1.14226,0.50768 0.63459,1.64994c-0.50768,1.14226 -1.64994,0.63459 -1.64994,0.63459l-0.71865,-0.35737c-0.9064,-0.16802 -1.82549,-0.30408 -2.75455,-0.41139c0.75283,0.20344 1.50173,0.42208 2.24618,0.65674l0.65029,0.37414c0,0 1.04007,0.69338 0.34669,1.73344c-0.69338,1.04007 -1.73344,0.34669 -1.73344,0.34669l-0.01637,-0.07031c-5.34939,-1.69252 -10.9484,-2.51579 -16.57475,-2.81405c-2.9703,0.33028 -5.89831,0.77514 -8.7027,1.23925c0.03551,0.04836 0.07099,0.09672 0.10644,0.14507c0.97026,0.33125 1.95017,0.64255 2.93752,0.93792c0.48049,-0.57684 1.28665,-0.34651 1.28665,-0.34651c2.11093,0.60649 4.14681,1.45546 6.1803,2.31573c4.5159,1.07703 9.07172,2.03597 13.47186,3.23578l1.17878,0.50813c0,0 0.99927,0.44412 0.71315,1.43621c1.14042,0.34678 2.27774,0.70328 3.40876,1.08011l2.26848,0.64601c0,0 1.20216,0.34251 0.85964,1.54467l0.00002,0.00001c-0.34251,1.20216 -1.54467,0.85964 -1.54467,0.85964l-2.32143,-0.66174c-5.1254,-1.70925 -10.41482,-2.92845 -15.46886,-4.87082c-1.15659,-0.4445 -2.30445,-0.93855 -3.45469,-1.43111c-2.37131,-0.56878 -4.73138,-1.17045 -7.05309,-1.85561c3.21569,4.45957 6.38767,8.81971 10.41332,12.84435l0.66667,0.66666c0,0 0.88389,0.88389 0,1.76777zM332.29727,179.5711c5.18873,-0.56074 10.49333,-0.77488 15.53277,-0.18947c-5.72523,-0.93371 -12.32234,-0.76157 -18.45071,0.08301c0.97275,0.02147 1.94573,0.05642 2.91794,0.10646z" data-paper-data="{&quot;index&quot;:null}"/></g></g></svg>